<svg width="300" height="80" viewBox="0 0 300 80" fill="none" xmlns="http://www.w3.org/2000/svg" role="img" aria-label="Muxlyve">
  <defs>
    <linearGradient id="mxlg" x1="40" y1="10" x2="40" y2="67" gradientUnits="userSpaceOnUse">
      <stop stop-color="#7c5cff"/><stop offset="1" stop-color="#4da3ff"/>
    </linearGradient>
  </defs>
  <g transform="translate(0,0) scale(0.4)">
    <g stroke="url(#mxlg)" stroke-width="6" stroke-linecap="round" stroke-linejoin="round" fill="none">
      <path d="M100 60 L100 28 M100 28 L95 37 M100 28 L105 37"/>
      <path d="M116 62 L146 40 M146 40 L135 41 M146 40 L145 52"/>
      <path d="M84 62 L54 40 M54 40 L65 41 M54 40 L55 52"/>
      <path d="M124 96 L162 96"/><path d="M76 96 L40 96"/>
      <path d="M100 134 L100 162 M100 162 L95 153 M100 162 L105 153"/>
      <path d="M114 120 L144 146"/><path d="M86 120 L56 146"/>
      <path d="M84 66 L70 30 L96 58 Z"/><path d="M116 66 L130 30 L104 58 Z"/>
      <path d="M82 66 L100 62 L118 66 L122 96 L110 122 L100 134 L90 122 L78 96 Z"/>
      <path d="M86 86 L94 90 L86 94"/><path d="M114 86 L106 90 L114 94"/>
      <path d="M100 98 L106 106 L100 116 L94 106 Z"/>
    </g>
    <g fill="url(#mxlg)"><polygon points="162,96 152,90 152,102"/><polygon points="144,146 133,144 142,135"/><rect x="34" y="90" width="12" height="12" rx="1.5"/><rect x="50" y="140" width="12" height="12" rx="1.5"/></g>
  </g>
  <text x="92" y="50" font-family="system-ui, -apple-system, 'Segoe UI', sans-serif" font-size="32" font-weight="600" letter-spacing="-0.5">
    <tspan fill="#e6edf3">Muxly</tspan><tspan fill="#7c5cff">ve</tspan>
  </text>
</svg>
