<?xml version="1.0" encoding="UTF-8"?>
<!-- Created with Inkscape (http://www.inkscape.org/) -->
<svg width="500" height="160" version="1.1" viewBox="0 0 132.29 42.333" xml:space="preserve" xmlns="http://www.w3.org/2000/svg" xmlns:xlink="http://www.w3.org/1999/xlink"><defs><linearGradient id="mxw" x1="100" x2="100" y1="24" y2="168" gradientUnits="userSpaceOnUse"><stop stop-color="#7c5cff" offset="0"/><stop stop-color="#4da3ff" offset="1"/></linearGradient><linearGradient id="linearGradient204" x1="53.022" x2="153.88" y1="102.55" y2="102.55" gradientUnits="userSpaceOnUse" xlink:href="#mxw"/><linearGradient id="linearGradient237" x1="47.883" x2="35.258" y1="178.77" y2="180.54" gradientUnits="userSpaceOnUse" xlink:href="#mxw"/><linearGradient id="linearGradient238" x1="47.208" x2="35.836" y1="150.76" y2="156.3" gradientUnits="userSpaceOnUse" xlink:href="#mxw"/><linearGradient id="linearGradient239" x1="46.724" x2="36.031" y1="123.07" y2="130.02" gradientUnits="userSpaceOnUse" xlink:href="#mxw"/><linearGradient id="linearGradient241" x1="95.119" x2="101.62" y1="159.68" y2="159.68" gradientUnits="userSpaceOnUse" xlink:href="#mxw"/><linearGradient id="linearGradient242" x1="117.96" x2="124.58" y1="159.21" y2="159.21" gradientUnits="userSpaceOnUse" xlink:href="#mxw"/></defs><g transform="translate(-32.186 -83.199)" fill="none"><g transform="matrix(.30992 0 0 .27882 28.025 75.773)" stroke-linecap="round" stroke-linejoin="round" stroke-miterlimit="2.1"><g><path d="m77.109 49.955-5.3321 18.86-0.51555 18.615-6.1294 24.045 21.418 17.611 5.0726 11.741 8.1147 3.3662 8.3009-3.4466-8.3009-3.0998-8.0442 3.1802" stroke="url(#linearGradient204)" stroke-width="2.637"/><path transform="matrix(.72961 0 0 .83279 19.831 -27.085)" d="m123.29 157.84-4.0334 2.7358" stroke="url(#linearGradient242)" stroke-width="2.583"/><path transform="matrix(.72961 0 0 .83279 19.831 -27.085)" d="m96.41 158.01 3.919 3.3518" stroke="url(#linearGradient241)" stroke-width="2.583"/></g><g stroke="url(#linearGradient204)" stroke-width="2.637"><path d="m108.04 140.75 5.5658-12.223 20.995-16.888-6.5776-24.688v-18.335l-5.1176-18.576-12.682 18.576-10.594-3.2337-10.331 3.2337-12.188-18.657 5.4953 25.171 6.6226-6.3108 6.6226 12.262 3.7787-4.4229 9.8187 11.821-9.6514 12.061-9.7936-12.061 5.7772-7.4788"/><path d="m103.55 81.37 6.6755-12.759 17.799 18.335"/><path d="m122.9 50.035-5.9328 25.528"/><path d="m82.605 75.125-10.827 10.776"/><path d="m99.796 100.54v21.473l-5.8483 6.755 5.7897 7.0767 6.0188-6.9963-5.9602-6.3591"/><path d="m113.6 128.52 2.18-14.797 6.697-6.353 0.42272-10.227 10.38 15.547"/><path d="m122.9 97.146 5.1176-10.199"/><path d="m86.55 129.09-2.1981-15.199-6.6789-6.5942-0.84544-10.146-9.809 14.569"/><path d="m76.828 97.146-5.5658-9.7166"/><path d="m86.55 129.09 6.4817-21.793"/><path d="m112.76 130.27-5.918-23.627s1.4091-11.437 10.357-10.058l5.7067 0.56098"/><path d="m117.2 96.585s0.48368 9.7559-9.0932 7.4907"/><path d="m93.032 107.29s0.71957-13.797-16.204-10.146"/><path d="m82.675 97.146s0.85722 10.309 8.989 6.8493"/><path d="m54.34 78.487h8.0667s8.441 9.6939 8.441 9.6939"/><path d="m69.146 114.77-6.5522 7.7106h-7.7532"/><path d="m54.496 100.5h12.82"/><path d="m79.653 123.41-23.327 26.982 5.8476-0.24125"/><path d="m56.326 150.4 0.1409-6.9963"/><path d="m99.737 144.19 0.05854 17.381 4.2265-5.6292"/><path d="m99.796 161.57-4.1574-5.7096"/><path d="m120.13 123.27 23.701 27.603-0.56362-7.318"/><path d="m143.83 150.88-6.3408-0.80417"/><path d="m131.98 100.54h20.587l-4.8613-4.6629"/><path d="m152.56 100.54-4.9317 4.6655"/><path d="m128.02 68.611 17.125-19.461-0.82531 7.4788"/><path d="m145.15 49.15-6.8843 0.88459"/><path d="m99.629 65.377 0.16731-21.856-3.8756 5.1149"/><path d="m99.796 43.521 4.2265 5.1149"/><path d="m71.777 68.814-16.438-19.101 5.567 0.24125"/><path d="m55.339 49.713 0.28181 6.8355"/></g><g stroke-width="3.383"><rect transform="matrix(.72961 0 0 .83279 19.831 -27.085)" x="36.694" y="121.77" width="9.3666" height="9.5598" rx="1.4485" stroke="url(#linearGradient239)"/><rect transform="matrix(.72961 0 0 .83279 19.831 -27.085)" x="36.887" y="148.5" width="9.2701" height="10.057" rx="1.4485" stroke="url(#linearGradient238)"/><rect transform="matrix(.72961 0 0 .83279 19.831 -27.085)" x="36.887" y="174.78" width="9.3666" height="9.7529" rx="1.4485" stroke="url(#linearGradient237)"/></g></g><g transform="matrix(.60373 0 0 .60373 28.24 79.056)"><text x="92" y="50" font-family="system-ui, '-apple-system', 'Segoe UI', sans-serif" font-size="32px" font-weight="600" letter-spacing="-.5"><tspan fill="#e6edf3">Muxly</tspan><tspan fill="#7c5cff">ve</tspan></text></g></g></svg>
