<?xml version="1.0" encoding="UTF-8" standalone="no"?>
<!-- Created with Inkscape (http://www.inkscape.org/) -->

<svg
   width="256"
   height="256"
   version="1.1"
   viewBox="0 0 67.733 67.733"
   xml:space="preserve"
   id="svg39"
   sodipodi:docname="icon-muxlyve.svg"
   inkscape:export-filename="icon-muxlyve.png"
   inkscape:export-xdpi="96"
   inkscape:export-ydpi="96"
   xmlns:inkscape="http://www.inkscape.org/namespaces/inkscape"
   xmlns:sodipodi="http://sodipodi.sourceforge.net/DTD/sodipodi-0.dtd"
   xmlns:xlink="http://www.w3.org/1999/xlink"
   xmlns="http://www.w3.org/2000/svg"
   xmlns:svg="http://www.w3.org/2000/svg"><sodipodi:namedview
     id="namedview39"
     pagecolor="#ffffff"
     bordercolor="#000000"
     borderopacity="0.25"
     inkscape:showpageshadow="2"
     inkscape:pageopacity="0.0"
     inkscape:pagecheckerboard="0"
     inkscape:deskcolor="#d1d1d1"><inkscape:page
       x="0"
       y="0"
       width="67.733002"
       height="67.733002"
       id="page2"
       margin="0"
       bleed="0" /></sodipodi:namedview><defs
     id="defs2"><linearGradient
       id="mxw"
       x1="100"
       x2="100"
       y1="24"
       y2="168"
       gradientUnits="userSpaceOnUse"><stop
         stop-color="#7c5cff"
         offset="0"
         id="stop1" /><stop
         stop-color="#4da3ff"
         offset="1"
         id="stop2" /></linearGradient><linearGradient
       id="linearGradient204"
       x1="53.021999"
       x2="153.88"
       y1="102.55"
       y2="102.55"
       gradientUnits="userSpaceOnUse"
       xlink:href="#mxw" /><linearGradient
       id="linearGradient237"
       x1="47.882999"
       x2="35.257999"
       y1="178.77"
       y2="180.53999"
       gradientUnits="userSpaceOnUse"
       xlink:href="#mxw" /><linearGradient
       id="linearGradient238"
       x1="47.208"
       x2="35.835999"
       y1="150.75999"
       y2="156.3"
       gradientUnits="userSpaceOnUse"
       xlink:href="#mxw" /><linearGradient
       id="linearGradient239"
       x1="46.723999"
       x2="36.030998"
       y1="123.07"
       y2="130.02"
       gradientUnits="userSpaceOnUse"
       xlink:href="#mxw" /><linearGradient
       id="linearGradient241"
       x1="95.119003"
       x2="101.62"
       y1="159.67999"
       y2="159.67999"
       gradientUnits="userSpaceOnUse"
       xlink:href="#mxw" /><linearGradient
       id="linearGradient242"
       x1="117.96"
       x2="124.58"
       y1="159.21001"
       y2="159.21001"
       gradientUnits="userSpaceOnUse"
       xlink:href="#mxw" /><linearGradient
       inkscape:collect="always"
       xlink:href="#mxw"
       id="linearGradient2"
       gradientUnits="userSpaceOnUse"
       x1="53.021999"
       y1="102.55"
       x2="153.88"
       y2="102.55" /><linearGradient
       inkscape:collect="always"
       xlink:href="#mxw"
       id="linearGradient3"
       gradientUnits="userSpaceOnUse"
       x1="53.021999"
       y1="102.55"
       x2="153.88"
       y2="102.55" /><linearGradient
       inkscape:collect="always"
       xlink:href="#mxw"
       id="linearGradient4"
       gradientUnits="userSpaceOnUse"
       x1="53.021999"
       y1="102.55"
       x2="153.88"
       y2="102.55" /><linearGradient
       inkscape:collect="always"
       xlink:href="#mxw"
       id="linearGradient5"
       gradientUnits="userSpaceOnUse"
       x1="53.021999"
       y1="102.55"
       x2="153.88"
       y2="102.55" /><linearGradient
       inkscape:collect="always"
       xlink:href="#mxw"
       id="linearGradient6"
       gradientUnits="userSpaceOnUse"
       x1="53.021999"
       y1="102.55"
       x2="153.88"
       y2="102.55" /><linearGradient
       inkscape:collect="always"
       xlink:href="#mxw"
       id="linearGradient7"
       gradientUnits="userSpaceOnUse"
       x1="53.021999"
       y1="102.55"
       x2="153.88"
       y2="102.55" /><linearGradient
       inkscape:collect="always"
       xlink:href="#mxw"
       id="linearGradient8"
       gradientUnits="userSpaceOnUse"
       x1="53.021999"
       y1="102.55"
       x2="153.88"
       y2="102.55" /><linearGradient
       inkscape:collect="always"
       xlink:href="#mxw"
       id="linearGradient9"
       gradientUnits="userSpaceOnUse"
       x1="53.021999"
       y1="102.55"
       x2="153.88"
       y2="102.55" /><linearGradient
       inkscape:collect="always"
       xlink:href="#mxw"
       id="linearGradient10"
       gradientUnits="userSpaceOnUse"
       x1="53.021999"
       y1="102.55"
       x2="153.88"
       y2="102.55" /><linearGradient
       inkscape:collect="always"
       xlink:href="#mxw"
       id="linearGradient11"
       gradientUnits="userSpaceOnUse"
       x1="53.021999"
       y1="102.55"
       x2="153.88"
       y2="102.55" /><linearGradient
       inkscape:collect="always"
       xlink:href="#mxw"
       id="linearGradient12"
       gradientUnits="userSpaceOnUse"
       x1="53.021999"
       y1="102.55"
       x2="153.88"
       y2="102.55" /><linearGradient
       inkscape:collect="always"
       xlink:href="#mxw"
       id="linearGradient13"
       gradientUnits="userSpaceOnUse"
       x1="53.021999"
       y1="102.55"
       x2="153.88"
       y2="102.55" /><linearGradient
       inkscape:collect="always"
       xlink:href="#mxw"
       id="linearGradient14"
       gradientUnits="userSpaceOnUse"
       x1="53.021999"
       y1="102.55"
       x2="153.88"
       y2="102.55" /><linearGradient
       inkscape:collect="always"
       xlink:href="#mxw"
       id="linearGradient15"
       gradientUnits="userSpaceOnUse"
       x1="53.021999"
       y1="102.55"
       x2="153.88"
       y2="102.55" /><linearGradient
       inkscape:collect="always"
       xlink:href="#mxw"
       id="linearGradient16"
       gradientUnits="userSpaceOnUse"
       x1="53.021999"
       y1="102.55"
       x2="153.88"
       y2="102.55" /><linearGradient
       inkscape:collect="always"
       xlink:href="#mxw"
       id="linearGradient17"
       gradientUnits="userSpaceOnUse"
       x1="53.021999"
       y1="102.55"
       x2="153.88"
       y2="102.55" /><linearGradient
       inkscape:collect="always"
       xlink:href="#mxw"
       id="linearGradient18"
       gradientUnits="userSpaceOnUse"
       x1="53.021999"
       y1="102.55"
       x2="153.88"
       y2="102.55" /><linearGradient
       inkscape:collect="always"
       xlink:href="#mxw"
       id="linearGradient19"
       gradientUnits="userSpaceOnUse"
       x1="53.021999"
       y1="102.55"
       x2="153.88"
       y2="102.55" /><linearGradient
       inkscape:collect="always"
       xlink:href="#mxw"
       id="linearGradient20"
       gradientUnits="userSpaceOnUse"
       x1="53.021999"
       y1="102.55"
       x2="153.88"
       y2="102.55" /><linearGradient
       inkscape:collect="always"
       xlink:href="#mxw"
       id="linearGradient21"
       gradientUnits="userSpaceOnUse"
       x1="53.021999"
       y1="102.55"
       x2="153.88"
       y2="102.55" /><linearGradient
       inkscape:collect="always"
       xlink:href="#mxw"
       id="linearGradient22"
       gradientUnits="userSpaceOnUse"
       x1="53.021999"
       y1="102.55"
       x2="153.88"
       y2="102.55" /><linearGradient
       inkscape:collect="always"
       xlink:href="#mxw"
       id="linearGradient23"
       gradientUnits="userSpaceOnUse"
       x1="53.021999"
       y1="102.55"
       x2="153.88"
       y2="102.55" /><linearGradient
       inkscape:collect="always"
       xlink:href="#mxw"
       id="linearGradient24"
       gradientUnits="userSpaceOnUse"
       x1="53.021999"
       y1="102.55"
       x2="153.88"
       y2="102.55" /><linearGradient
       inkscape:collect="always"
       xlink:href="#mxw"
       id="linearGradient25"
       gradientUnits="userSpaceOnUse"
       x1="53.021999"
       y1="102.55"
       x2="153.88"
       y2="102.55" /><linearGradient
       inkscape:collect="always"
       xlink:href="#mxw"
       id="linearGradient26"
       gradientUnits="userSpaceOnUse"
       x1="53.021999"
       y1="102.55"
       x2="153.88"
       y2="102.55" /><linearGradient
       inkscape:collect="always"
       xlink:href="#mxw"
       id="linearGradient27"
       gradientUnits="userSpaceOnUse"
       x1="53.021999"
       y1="102.55"
       x2="153.88"
       y2="102.55" /><linearGradient
       inkscape:collect="always"
       xlink:href="#mxw"
       id="linearGradient28"
       gradientUnits="userSpaceOnUse"
       x1="53.021999"
       y1="102.55"
       x2="153.88"
       y2="102.55" /><linearGradient
       inkscape:collect="always"
       xlink:href="#mxw"
       id="linearGradient29"
       gradientUnits="userSpaceOnUse"
       x1="53.021999"
       y1="102.55"
       x2="153.88"
       y2="102.55" /><linearGradient
       inkscape:collect="always"
       xlink:href="#mxw"
       id="linearGradient30"
       gradientUnits="userSpaceOnUse"
       x1="53.021999"
       y1="102.55"
       x2="153.88"
       y2="102.55" /><linearGradient
       inkscape:collect="always"
       xlink:href="#mxw"
       id="linearGradient31"
       gradientUnits="userSpaceOnUse"
       x1="53.021999"
       y1="102.55"
       x2="153.88"
       y2="102.55" /><linearGradient
       inkscape:collect="always"
       xlink:href="#mxw"
       id="linearGradient32"
       gradientUnits="userSpaceOnUse"
       x1="53.021999"
       y1="102.55"
       x2="153.88"
       y2="102.55" /><linearGradient
       inkscape:collect="always"
       xlink:href="#mxw"
       id="linearGradient33"
       gradientUnits="userSpaceOnUse"
       x1="53.021999"
       y1="102.55"
       x2="153.88"
       y2="102.55" /></defs><g
     transform="translate(-32.186,-83.199)"
     id="g39"><g
       transform="matrix(0.4604,0,0,0.41421,20.185,74.59)"
       fill="none"
       stroke-linecap="round"
       stroke-linejoin="round"
       stroke-miterlimit="2.1"
       id="g38"><g
         id="g4"><path
           d="m 77.109,49.955 -5.3321,18.86 -0.51555,18.615 -6.1294,24.045 21.418,17.611 5.0726,11.741 8.1147,3.3662 8.3009,-3.4466 -8.3009,-3.0998 -8.0442,3.1802"
           stroke="url(#linearGradient204)"
           stroke-width="2.637"
           id="path2"
           style="stroke:url(#linearGradient2)" /><path
           transform="matrix(0.72961,0,0,0.83279,19.831,-27.085)"
           d="m 123.29,157.84 -4.0334,2.7358"
           stroke="url(#linearGradient242)"
           stroke-width="2.583"
           id="path3"
           style="stroke:url(#linearGradient242)" /><path
           transform="matrix(0.72961,0,0,0.83279,19.831,-27.085)"
           d="m 96.41,158.01 3.919,3.3518"
           stroke="url(#linearGradient241)"
           stroke-width="2.583"
           id="path4"
           style="stroke:url(#linearGradient241)" /></g><g
         stroke="url(#linearGradient204)"
         stroke-width="2.637"
         id="g35"
         style="stroke:url(#linearGradient204)"><path
           d="m 108.04,140.75 5.5658,-12.223 20.995,-16.888 -6.5776,-24.688 V 68.616 l -5.1176,-18.576 -12.682,18.576 -10.594,-3.2337 -10.331,3.2337 -12.188,-18.657 5.4953,25.171 6.6226,-6.3108 6.6226,12.262 3.7787,-4.4229 9.8187,11.821 -9.6514,12.061 -9.7936,-12.061 5.7772,-7.4788"
           id="path5"
           style="stroke:url(#linearGradient3)" /><path
           d="m 103.55,81.37 6.6755,-12.759 17.799,18.335"
           id="path6"
           style="stroke:url(#linearGradient4)" /><path
           d="m 122.9,50.035 -5.9328,25.528"
           id="path7"
           style="stroke:url(#linearGradient5)" /><path
           d="M 82.605,75.125 71.778,85.901"
           id="path8"
           style="stroke:url(#linearGradient6)" /><path
           d="m 99.796,100.54 v 21.473 l -5.8483,6.755 5.7897,7.0767 6.0188,-6.9963 -5.9602,-6.3591"
           id="path9"
           style="stroke:url(#linearGradient7)" /><path
           d="m 113.6,128.52 2.18,-14.797 6.697,-6.353 0.42272,-10.227 10.38,15.547"
           id="path10"
           style="stroke:url(#linearGradient8)" /><path
           d="m 122.9,97.146 5.1176,-10.199"
           id="path11"
           style="stroke:url(#linearGradient9)" /><path
           d="m 86.55,129.09 -2.1981,-15.199 -6.6789,-6.5942 -0.84544,-10.146 -9.809,14.569"
           id="path12"
           style="stroke:url(#linearGradient10)" /><path
           d="M 76.828,97.146 71.2622,87.4294"
           id="path13"
           style="stroke:url(#linearGradient11)" /><path
           d="m 86.55,129.09 6.4817,-21.793"
           id="path14"
           style="stroke:url(#linearGradient12)" /><path
           d="m 112.76,130.27 -5.918,-23.627 c 0,0 1.4091,-11.437 10.357,-10.058 l 5.7067,0.56098"
           id="path15"
           style="stroke:url(#linearGradient13)" /><path
           d="m 117.2,96.585 c 0,0 0.48368,9.7559 -9.0932,7.4907"
           id="path16"
           style="stroke:url(#linearGradient14)" /><path
           d="m 93.032,107.29 c 0,0 0.71957,-13.797 -16.204,-10.146"
           id="path17"
           style="stroke:url(#linearGradient15)" /><path
           d="m 82.675,97.146 c 0,0 0.85722,10.309 8.989,6.8493"
           id="path18"
           style="stroke:url(#linearGradient16)" /><path
           d="m 54.34,78.487 h 8.0667 c 0,0 8.441,9.6939 8.441,9.6939"
           id="path19"
           style="stroke:url(#linearGradient17)" /><path
           d="m 69.146,114.77 -6.5522,7.7106 h -7.7532"
           id="path20"
           style="stroke:url(#linearGradient18)" /><path
           d="m 54.496,100.5 h 12.82"
           id="path21"
           style="stroke:url(#linearGradient19)" /><path
           d="m 79.653,123.41 -23.327,26.982 5.8476,-0.24125"
           id="path22"
           style="stroke:url(#linearGradient20)" /><path
           d="m 56.326,150.4 0.1409,-6.9963"
           id="path23"
           style="stroke:url(#linearGradient21)" /><path
           d="m 99.737,144.19 0.05854,17.381 4.2265,-5.6292"
           id="path24"
           style="stroke:url(#linearGradient22)" /><path
           d="m 99.796,161.57 -4.1574,-5.7096"
           id="path25"
           style="stroke:url(#linearGradient23)" /><path
           d="m 120.13,123.27 23.701,27.603 -0.56362,-7.318"
           id="path26"
           style="stroke:url(#linearGradient24)" /><path
           d="m 143.83,150.88 -6.3408,-0.80417"
           id="path27"
           style="stroke:url(#linearGradient25)" /><path
           d="m 131.98,100.54 h 20.587 l -4.8613,-4.6629"
           id="path28"
           style="stroke:url(#linearGradient26)" /><path
           d="m 152.56,100.54 -4.9317,4.6655"
           id="path29"
           style="stroke:url(#linearGradient27)" /><path
           d="m 128.02,68.611 17.125,-19.461 -0.82531,7.4788"
           id="path30"
           style="stroke:url(#linearGradient28)" /><path
           d="m 145.15,49.15 -6.8843,0.88459"
           id="path31"
           style="stroke:url(#linearGradient29)" /><path
           d="m 99.629,65.377 0.16731,-21.856 -3.8756,5.1149"
           id="path32"
           style="stroke:url(#linearGradient30)" /><path
           d="m 99.796,43.521 4.2265,5.1149"
           id="path33"
           style="stroke:url(#linearGradient31)" /><path
           d="M 71.777,68.814 55.339,49.713 60.906,49.95425"
           id="path34"
           style="stroke:url(#linearGradient32)" /><path
           d="m 55.339,49.713 0.28181,6.8355"
           id="path35"
           style="stroke:url(#linearGradient33)" /></g><g
         stroke-width="3.383"
         id="g37"><rect
           transform="matrix(0.72961,0,0,0.83279,19.831,-27.085)"
           x="36.694"
           y="121.77"
           width="9.3666"
           height="9.5598001"
           rx="1.4485"
           stroke="url(#linearGradient239)"
           id="rect35"
           style="stroke:url(#linearGradient239)" /><rect
           transform="matrix(0.72961,0,0,0.83279,19.831,-27.085)"
           x="36.887001"
           y="148.5"
           width="9.2700996"
           height="10.057"
           rx="1.4485"
           stroke="url(#linearGradient238)"
           id="rect36"
           style="stroke:url(#linearGradient238)" /><rect
           transform="matrix(0.72961,0,0,0.83279,19.831,-27.085)"
           x="36.887001"
           y="174.78"
           width="9.3666"
           height="9.7529001"
           rx="1.4485"
           stroke="url(#linearGradient237)"
           id="rect37"
           style="stroke:url(#linearGradient237)" /></g></g></g></svg>
